<svg width="202" height="51" viewBox="0 0 202 51" fill="none" xmlns="http://www.w3.org/2000/svg">
<g clip-path="url(#clip0_4071_247)">
<path d="M167.93 7.88965C172.079 7.88965 175.402 10.7666 175.402 15.0646C175.402 19.3626 172.082 22.2372 167.93 22.2372C163.779 22.2372 160.459 19.3626 160.459 15.0646C160.459 10.7666 163.779 7.88965 167.93 7.88965ZM167.93 19.1636C170.448 19.1636 171.965 17.1986 171.965 15.0646C171.965 12.9306 170.448 10.9633 167.93 10.9633C165.413 10.9633 163.893 12.926 163.893 15.0646C163.893 17.2032 165.411 19.1636 167.93 19.1636Z" fill="white"/>
<path d="M201.995 2.29578C201.995 1.23343 201.132 0.374746 200.064 0.374746L198.563 0.370117V9.96603H198.477C197.76 9.08421 196.388 7.88761 193.812 7.88761C189.891 7.88761 187.171 11.0214 187.171 15.0626C187.171 19.1037 189.719 22.2352 193.954 22.2352C195.873 22.2352 197.677 21.4946 198.677 19.8443H198.733V21.8926H201.998L201.993 2.29115L201.995 2.29578ZM194.642 19.1639C192.122 19.1639 190.605 17.1988 190.605 15.0649C190.605 12.9309 192.122 10.9636 194.642 10.9636C197.162 10.9636 198.677 12.9263 198.677 15.0649C198.677 17.2035 197.16 19.1639 194.642 19.1639Z" fill="white"/>
<path d="M184.97 7.89001C183.166 7.89001 181.649 8.8297 180.905 10.3943H180.847V8.23024H177.412V21.8974H178.927C179.988 21.8904 180.847 21.0341 180.847 19.9763V19.1061V14.5789C180.847 13.8383 181.305 11.1349 184.539 11.1349C185.084 11.1349 185.626 11.2483 186.198 11.3895V8.08674C185.798 7.97333 185.398 7.8877 184.967 7.8877L184.97 7.89001Z" fill="white"/>
<path d="M131.934 7.89001C129.872 7.89001 128.413 8.6862 127.411 10.4244C126.696 8.71629 125.237 7.89001 123.118 7.89001C120.828 7.89001 119.511 9.08661 118.911 10.3665H118.852V8.23024H115.588V21.8974H119.022V14.4377C119.022 12.6139 119.911 10.9637 122.173 10.9637C123.832 10.9637 124.518 12.0723 124.518 13.7526V21.895H127.953V14.491C127.953 12.725 128.755 10.9614 130.901 10.9614C132.932 10.9614 133.449 12.4426 133.449 14.1507V19.9763C133.451 21.0364 134.314 21.895 135.38 21.895H136.883V13.7526C136.883 10.4776 135.594 7.8877 131.932 7.8877L131.934 7.89001Z" fill="white"/>
<path d="M85.8885 7.88993C83.7688 7.88993 82.396 9.00089 81.8515 10.1396H81.7933V2.24718C81.7677 1.20797 80.9184 0.374746 79.8667 0.374746L78.3589 0.370117V21.8973H81.7933V14.4376C81.7933 12.6138 82.6798 10.9636 84.9415 10.9636C87.3451 10.9636 87.4592 13.4679 87.4592 14.9769V19.9739C87.4615 21.034 88.3271 21.895 89.3928 21.895H90.8936V13.2688C90.8936 10.4775 89.5766 7.88761 85.8839 7.88761L85.8885 7.88993Z" fill="white"/>
<path d="M112.633 2.71933V2.29347C112.633 1.23343 111.77 0.370117 110.702 0.370117H109.199V21.8973H112.633V2.71933Z" fill="white"/>
<path d="M105.259 18.7979C104.361 18.1105 103.435 18.2378 102.546 18.7655C102.232 18.9784 101.038 19.5061 100.047 19.5061C98.1296 19.5061 96.5846 18.2818 96.3542 16.2589H106.83V15.3215C106.83 10.5652 104.226 7.88965 100.389 7.88965C96.2379 7.88965 92.9175 10.7666 92.9175 15.0646C92.9175 19.3626 96.2379 22.2372 100.389 22.2372C102.553 22.2372 104.575 21.4758 106.173 19.5339L105.259 18.7956V18.7979ZM99.9027 10.4518C102.05 10.4518 103.365 11.7039 103.395 13.699H96.3542C96.6125 11.734 97.8713 10.4518 99.9027 10.4518Z" fill="white"/>
<path d="M74.7357 17.9276C73.7328 17.2194 72.8859 17.3513 72.011 17.9022C71.8946 17.9762 71.7783 18.048 71.6643 18.122C71.1686 18.4808 69.6632 19.1636 68.5579 19.1636C64.3789 19.1636 61.6007 15.9742 61.6007 11.6762C61.6007 7.66282 64.3766 4.47344 68.5579 4.47344C69.961 4.47344 71.3339 4.90163 72.823 6.46623L75.6292 4.41558C73.6258 2.11034 71.278 1.22852 68.53 1.22852C62.2894 1.22852 57.8242 5.44322 57.8242 11.9076C57.8242 18.372 62.2894 22.4131 68.53 22.4131C71.4921 22.4131 74.2308 21.3392 76.062 18.8581L74.7357 17.9299V17.9276Z" fill="white"/>
<path d="M157.08 11.1326H157.508C158.574 11.1326 159.437 10.2739 159.44 9.21385V8.23018H156.026V5.75367C156.026 4.24462 156.312 2.93461 158.23 2.93461C158.716 2.93461 159.174 3.02025 159.661 3.13597L159.889 0.231274C159.172 0.090089 158.458 0.0322266 157.713 0.0322266C153.448 0.0322266 152.589 2.51106 152.589 6.29758V21.8996H156.024V11.1372H157.078L157.08 11.1326Z" fill="white"/>
<path d="M144.427 13.4097C144.08 13.331 143.759 13.2223 143.489 13.0764C143.059 12.8566 142.789 12.5626 142.773 12.1136C142.773 12.0997 142.768 12.0858 142.768 12.0719C142.768 12.0511 142.775 12.0349 142.777 12.0164C142.777 11.9493 142.789 11.8798 142.805 11.8081C142.819 11.7479 142.833 11.6924 142.854 11.6368C142.866 11.6021 142.873 11.572 142.889 11.5327C142.903 11.5026 142.922 11.4748 142.94 11.447C142.95 11.4308 142.957 11.4169 142.966 11.4031C143.136 11.1323 143.41 10.9402 143.729 10.8152C143.736 10.8152 143.743 10.8105 143.75 10.8082C143.831 10.7758 143.92 10.7504 144.006 10.7249C144.09 10.7041 144.173 10.6879 144.257 10.6717C144.278 10.6694 144.301 10.6624 144.322 10.6601C144.395 10.6508 144.467 10.6416 144.539 10.6346C144.553 10.6346 144.569 10.6346 144.583 10.6346C144.646 10.63 144.711 10.6231 144.771 10.6231C144.788 10.6231 144.802 10.6254 144.818 10.6254C145.232 10.6254 145.625 10.6925 145.905 10.8059C145.998 10.8383 146.086 10.8754 146.172 10.917C147.077 11.2966 148.048 11.4609 148.715 10.8985L149.811 9.75745C148.446 8.39884 146.652 7.88965 144.855 7.88965C142.079 7.88965 139.331 9.25752 139.331 12.3034C139.331 17.5133 146.745 15.2914 146.745 18.1105C146.745 19.1937 145.458 19.6774 144.455 19.6774C142.996 19.6774 142.079 18.9645 141.19 17.9971L138.901 20.1334C140.304 21.698 142.138 22.2395 144.255 22.2395C147.061 22.2395 150.179 21.1008 150.179 17.8559C150.179 14.1619 146.61 13.9907 144.425 13.412L144.427 13.4097Z" fill="white"/>
<path d="M25.2463 22.5732C23.8222 22.5732 22.6611 23.7259 22.6611 25.1423C22.6611 26.5588 23.8199 27.7114 25.2463 27.7114C26.6726 27.7114 27.829 26.5588 27.829 25.1423C27.829 23.7259 26.6703 22.5732 25.2463 22.5732Z" fill="white"/>
<path d="M50.3599 0.384086C50.3599 0.384086 26.6121 -2.87704 26.6121 12.6648C26.6121 16.6203 26.6028 19.1987 26.5889 20.8743C26.8727 20.9646 27.1473 21.0803 27.4056 21.2215C32.4106 14.7294 39.91 10.1212 43.7935 8.32745C40.031 10.6119 33.3065 15.7917 29.0251 22.7259C29.2578 23.0847 29.4369 23.4758 29.5602 23.8925H29.7557C32.5944 23.8925 38.2696 24.2211 40.8105 23.3532C50.6042 20.0064 50.3599 11.2622 50.3599 0.384086Z" fill="white"/>
<path d="M0 23.8853H2.51764C2.83642 18.194 5.31218 13.0627 9.14914 9.28315C12.9908 5.50126 18.2005 3.06409 23.9804 2.75164V0.0297852C11.0292 0.666272 0.637554 11.0005 0 23.8853ZM19.3709 12.3846V23.8853H20.9346C21.3627 22.4295 22.5168 21.2815 23.9804 20.8556V7.82502C23.9804 7.82502 23.9641 7.82502 23.9571 7.82502C21.4232 7.82502 19.3709 9.86641 19.3709 12.3846ZM13.9773 11.3731C11.9507 11.3731 10.3079 13.0049 10.3079 15.0231V23.8853H17.6468V15.0231C17.6468 13.0049 16.004 11.3731 13.9773 11.3731ZM3.47397 23.8853H4.90963C5.53788 13.6946 13.7353 5.53829 23.9827 4.91569V3.7029C18.4612 4.01535 13.4933 6.34605 9.82392 9.95899C6.15915 13.5696 3.79508 18.4555 3.4763 23.8853H3.47397Z" fill="white"/>
<path d="M23.7687 45.5744C22.2842 45.5976 21.2534 45.0652 20.6461 44.7018C20.0038 44.3524 19.7968 44.1857 18.8288 44.1603C17.8236 44.1857 17.6235 44.3547 16.9952 44.6995C16.3972 45.0629 15.3711 45.5999 13.8866 45.5744C12.4044 45.5976 11.3759 45.0675 10.764 44.7042C10.1218 44.3547 9.91467 44.1857 8.95601 44.1603C8.8513 44.1649 8.75823 44.1695 8.66748 44.1741C12.8093 47.757 18.1331 50.0206 23.9827 50.3053V45.5675C23.9432 45.5675 23.9083 45.5744 23.8687 45.5744C23.8362 45.5744 23.8013 45.5744 23.7687 45.5744ZM20.7717 38.3948C20.1341 38.0453 19.8456 37.8417 18.8288 37.8208C17.7747 37.8417 17.4932 38.0477 16.8673 38.3925C16.2669 38.7536 15.3222 39.2558 13.8843 39.235C12.4509 39.2535 11.5016 38.7605 10.8896 38.3972C10.2521 38.0477 9.96353 37.844 8.95601 37.8208C7.90893 37.844 7.62738 38.05 7.00146 38.3948C6.43604 38.7351 5.56348 39.191 4.26975 39.2281C4.9678 40.2557 5.73566 41.2324 6.57332 42.1443C7.16434 41.8735 7.95547 41.6328 8.95601 41.649C10.4103 41.6282 11.4248 42.1675 12.0205 42.5216C12.6487 42.8618 12.8767 43.0377 13.8843 43.0609C14.8964 43.0354 15.0965 42.8688 15.7248 42.5239C16.3205 42.1628 17.3466 41.6236 18.8265 41.649C20.2854 41.6236 21.3022 42.1628 21.9002 42.5216C22.5308 42.8641 22.7565 43.04 23.7687 43.0632C23.8455 43.0609 23.9153 43.0586 23.9827 43.0539V39.2304C23.9106 39.2327 23.8431 39.2396 23.7687 39.2373C22.333 39.2558 21.3813 38.7605 20.7694 38.3972L20.7717 38.3948ZM23.7687 33.3724C22.3796 33.3886 21.5093 32.9257 20.895 32.5669C20.2621 32.2151 19.8922 31.9744 18.8265 31.9605C17.7259 31.9744 17.3629 32.2174 16.7393 32.5646C16.1366 32.9234 15.2734 33.3886 13.8843 33.3724C12.4975 33.3886 11.6272 32.9303 11.0153 32.5669C10.3824 32.2174 10.0124 31.9744 8.95601 31.9605C7.86239 31.9767 7.49708 32.2174 6.87581 32.5669C6.27083 32.9234 5.4099 33.3886 4.02311 33.3724C2.63398 33.3886 1.76375 32.9257 1.15179 32.5669C1.11921 32.5484 1.08896 32.5322 1.05871 32.516C1.54735 34.1153 2.18956 35.6452 2.9737 37.0918C3.23896 37.1705 3.56007 37.2144 4.02543 37.2214C5.08182 37.2029 5.36569 36.9992 5.98929 36.652C6.58729 36.2933 7.52733 35.791 8.95834 35.8072C10.3637 35.791 11.2968 36.2933 11.8971 36.6497C12.5231 36.9923 12.8302 37.2029 13.8866 37.2214C14.9453 37.2029 15.2292 36.9969 15.8551 36.6497C16.4554 36.2886 17.3955 35.7887 18.8288 35.8072C20.2389 35.7887 21.1742 36.2886 21.7769 36.6474C22.4075 36.9923 22.7123 37.2029 23.771 37.2214C23.8455 37.2214 23.9153 37.2168 23.9851 37.2144V33.3677C23.9339 33.3677 23.8897 33.3724 23.8385 33.3724C23.8152 33.3724 23.7943 33.3724 23.771 33.3724H23.7687ZM20.9485 26.4497H0C0.0721321 27.8847 0.262933 29.2896 0.567749 30.6505C1.12619 30.8149 1.55898 31.0532 1.90568 31.2569C2.5316 31.6018 2.92018 31.8494 4.02543 31.8633C5.12836 31.8471 5.496 31.6064 6.11494 31.2592C6.71759 30.9028 7.57387 30.4376 8.95601 30.4492C10.3126 30.4376 11.1642 30.9028 11.7692 31.2569C12.3951 31.6018 12.7813 31.8494 13.8843 31.8633C14.9895 31.8471 15.3571 31.6064 15.9784 31.2569C16.5811 30.8982 17.4397 30.4353 18.8265 30.4492C20.1877 30.4353 21.0416 30.8982 21.6489 31.2569C22.2748 31.6018 22.6634 31.8494 23.7663 31.8633C23.8408 31.8633 23.9106 31.861 23.9804 31.8564V29.4308C22.5331 29.0095 21.386 27.8847 20.9462 26.4497H20.9485Z" fill="white"/>
<path d="M50.453 26.4014H46.9464C46.3251 37.3351 37.4971 46.1209 26.5098 46.7504V50.2361C39.4493 49.6019 49.8247 39.2746 50.453 26.4014Z" fill="white"/>
<path d="M43.0559 26.4012H40.2498C39.9426 30.0327 38.3418 33.2892 35.8962 35.7217C33.4461 38.1566 30.1676 39.7513 26.5098 40.0522V42.8434C35.3611 42.2278 42.4277 35.201 43.0559 26.3989V26.4012Z" fill="white"/>
<path d="M36.5944 26.4014H34.4793C34.2001 28.459 33.2438 30.299 31.8383 31.6993C30.4306 33.0995 28.5808 34.0485 26.5122 34.3262V36.4324C31.8081 35.8515 36.0127 31.6715 36.5967 26.4014H36.5944Z" fill="white"/>
<path d="M31.3451 26.4012H29.558C29.1299 27.8594 27.9758 29.0051 26.5122 29.4309V31.1969C28.9298 30.6993 30.8401 28.8037 31.3451 26.3989V26.4012Z" fill="white"/>
<path d="M67.5132 31.9698C66.7849 31.0278 65.5819 30.5025 64.3999 30.5025C61.5053 30.5025 59.5927 32.8031 59.5927 35.7193C59.5927 38.418 61.396 40.7187 64.3999 40.7187C65.8751 40.7187 67.0036 40.066 67.7692 38.9967L69.2444 40.1007C68.8628 40.6261 67.3131 42.3481 64.365 42.3481C60.2674 42.3481 57.7358 38.9434 57.7358 35.7193C57.7358 31.7338 60.4862 28.873 64.4558 28.873C66.1497 28.873 67.9344 29.5072 68.9722 30.8658L67.5155 31.9698H67.5132Z" fill="white"/>
<path d="M71.3363 29.1621C71.9924 29.1621 72.5369 29.706 72.5369 30.3564C72.5369 31.0068 71.9901 31.553 71.3363 31.553C70.6824 31.553 70.1333 31.0091 70.1333 30.3564C70.1333 29.7037 70.6801 29.1621 71.3363 29.1621ZM70.5172 33.437H72.1553V42.0238H70.5172V33.437Z" fill="white"/>
<path d="M79.2031 34.8491H76.853V38.7444C76.853 39.7049 76.8529 40.7186 78.0908 40.7186C78.4724 40.7186 78.9285 40.6631 79.2566 40.464V41.95C78.875 42.1675 78.1094 42.2393 77.7814 42.2393C75.2498 42.2393 75.2149 40.7001 75.2149 39.323V34.8491H73.3208V33.4372H75.2149V31.0278H76.853V33.4372H79.2031V34.8491Z" fill="white"/>
<path d="M80.0942 33.437H81.9883L84.5548 40.1398H84.592L87.0329 33.437H88.7989L84.7014 43.8708C84.1197 45.3567 83.5542 46.3704 81.7509 46.3704C81.26 46.3704 80.7504 46.3149 80.2943 46.1344L80.4945 44.6484C80.8039 44.7757 81.1506 44.8475 81.4787 44.8475C82.5165 44.8475 82.8259 44.2851 83.154 43.4356L83.6822 42.077L80.0942 33.437Z" fill="white"/>
<path d="M102.877 31.9698C102.148 31.0278 100.945 30.5025 99.7632 30.5025C96.8686 30.5025 94.9559 32.8031 94.9559 35.7193C94.9559 38.418 96.7592 40.7187 99.7632 40.7187C101.238 40.7187 102.367 40.066 103.132 38.9967L104.608 40.1007C104.226 40.6261 102.676 42.3481 99.7283 42.3481C95.6307 42.3481 93.0991 38.9434 93.0991 35.7193C93.0991 31.7338 95.8494 28.873 99.819 28.873C101.513 28.873 103.298 29.5072 104.335 30.8658L102.879 31.9698H102.877Z" fill="white"/>
<path d="M110.106 33.2197C112.673 33.2197 114.695 35.231 114.695 37.7307C114.695 40.2303 112.673 42.2416 110.106 42.2416C107.54 42.2416 105.518 40.2303 105.518 37.7307C105.518 35.231 107.54 33.2197 110.106 33.2197ZM110.106 40.7187C111.854 40.7187 112.947 39.4689 112.947 37.7307C112.947 35.9925 111.854 34.7427 110.106 34.7427C108.359 34.7427 107.265 35.9925 107.265 37.7307C107.265 39.4689 108.359 40.7187 110.106 40.7187Z" fill="white"/>
<path d="M123.488 42.0217H121.85V40.7001H121.812C121.394 41.6051 120.3 42.2393 118.971 42.2393C117.296 42.2393 115.839 41.244 115.839 38.9596V33.4349H117.477V38.506C117.477 40.1169 118.406 40.7163 119.444 40.7163C120.809 40.7163 121.847 39.8461 121.847 37.8533V33.4326H123.485V42.0194L123.488 42.0217Z" fill="white"/>
<path d="M125.237 33.4373H126.875V34.7589H126.913C127.331 33.8539 128.425 33.2197 129.754 33.2197C131.429 33.2197 132.886 34.215 132.886 36.4994V42.0241H131.248V36.953C131.248 35.3421 130.319 34.7427 129.281 34.7427C127.915 34.7427 126.878 35.6129 126.878 37.6057V42.0264H125.24V33.4396L125.237 33.4373Z" fill="white"/>
<path d="M140.625 35.7194C140.024 35.0853 139.387 34.7589 138.477 34.7589C136.692 34.7589 135.782 36.1893 135.782 37.8025C135.782 39.4157 136.876 40.7187 138.568 40.7187C139.478 40.7187 140.115 40.3924 140.662 39.7582L141.828 40.9178C140.971 41.8598 139.806 42.2394 138.549 42.2394C135.89 42.2394 134.033 40.4109 134.033 37.7654C134.033 35.12 135.855 33.2383 138.549 33.2383C139.806 33.2383 141.009 33.6734 141.863 34.5969L140.625 35.7194Z" fill="white"/>
<path d="M144.176 29.1621C144.832 29.1621 145.376 29.706 145.376 30.3564C145.376 31.0068 144.829 31.553 144.176 31.553C143.522 31.553 142.973 31.0091 142.973 30.3564C142.973 29.7037 143.519 29.1621 144.176 29.1621ZM143.357 33.437H144.995V42.0238H143.357V33.437Z" fill="white"/>
<path d="M147.18 28.3291H148.818V42.024H147.18V28.3291Z" fill="white"/>
</g>
<defs>
<clipPath id="clip0_4071_247">
<rect width="202" height="50.2756" fill="white" transform="translate(0 0.0297852)"/>
</clipPath>
</defs>
</svg>
