<svg width="40" height="41" viewBox="0 0 40 41" fill="none" xmlns="http://www.w3.org/2000/svg">
<path d="M20 40.0298C31.0457 40.0298 40 31.0755 40 20.0298C40 8.98409 31.0457 0.0297852 20 0.0297852C8.9543 0.0297852 0 8.98409 0 20.0298C0 31.0755 8.9543 40.0298 20 40.0298Z" fill="white"/>
<path d="M22.1688 18.2102L30.6814 9.01318H28.6221L21.2473 16.9806L15.2888 9.01318H8.28436L17.3718 21.1643L8.2251 31.0428H10.2844L18.2903 22.3939L24.7584 31.0428H31.7629L22.1629 18.2073L22.1688 18.2102ZM11.3125 10.5302H14.5303L28.7407 29.5287H25.5229L11.3125 10.5302Z" fill="#004751"/>
</svg>
