<svg width="40" height="41" viewBox="0 0 40 41" fill="none" xmlns="http://www.w3.org/2000/svg">
<path d="M20 40.0298C31.0457 40.0298 40 31.0755 40 20.0298C40 8.98409 31.0457 0.0297852 20 0.0297852C8.9543 0.0297852 0 8.98409 0 20.0298C0 31.0755 8.9543 40.0298 20 40.0298Z" fill="white"/>
<path d="M19.9999 9.70664C23.3628 9.70664 23.7598 9.71849 25.0873 9.78072C26.3139 9.83701 26.9806 10.0415 27.425 10.2133C28.0117 10.4415 28.4325 10.714 28.8739 11.1555C29.3154 11.597 29.588 12.0148 29.8162 12.6044C29.988 13.0489 30.1924 13.7155 30.2487 14.9422C30.308 16.2696 30.3228 16.6696 30.3228 20.0296C30.3228 23.3896 30.311 23.7896 30.2487 25.117C30.1924 26.3437 29.988 27.0103 29.8162 27.4548C29.588 28.0415 29.3154 28.4622 28.8739 28.9037C28.4325 29.3452 28.0147 29.6178 27.425 29.8459C26.9806 30.0178 26.3139 30.2222 25.0873 30.2785C23.7598 30.3378 23.3628 30.3526 19.9999 30.3526C16.6369 30.3526 16.2399 30.3407 14.9125 30.2785C13.6858 30.2222 13.0191 30.0178 12.5747 29.8459C11.988 29.6178 11.5673 29.3452 11.1258 28.9037C10.6843 28.4622 10.4117 28.0444 10.1836 27.4548C10.0117 27.0103 9.80725 26.3437 9.75096 25.117C9.6917 23.7896 9.67688 23.3896 9.67688 20.0296C9.67688 16.6696 9.68874 16.2696 9.75096 14.9422C9.80725 13.7155 10.0117 13.0489 10.1836 12.6044C10.4117 12.0178 10.6843 11.597 11.1258 11.1555C11.5673 10.714 11.985 10.4415 12.5747 10.2133C13.0191 10.0415 13.6858 9.83701 14.9125 9.78072C16.2399 9.72146 16.6399 9.70664 19.9999 9.70664ZM19.9999 7.43701C16.5806 7.43701 16.151 7.45183 14.8087 7.51405C13.4695 7.57627 12.5539 7.78664 11.751 8.10072C10.9243 8.42368 10.2221 8.85331 9.51986 9.55257C8.8206 10.2518 8.388 10.954 8.068 11.7837C7.75689 12.5837 7.54356 13.4992 7.48134 14.8415C7.41911 16.1837 7.4043 16.6133 7.4043 20.0326C7.4043 23.4518 7.41911 23.8815 7.48134 25.2237C7.54356 26.5629 7.75392 27.4785 8.068 28.2815C8.39096 29.1081 8.8206 29.8103 9.51986 30.5126C10.2191 31.2118 10.9213 31.6444 11.751 31.9644C12.551 32.2755 13.4665 32.4889 14.8087 32.5511C16.151 32.6133 16.5806 32.6281 19.9999 32.6281C23.4191 32.6281 23.8487 32.6133 25.191 32.5511C26.5302 32.4889 27.4458 32.2785 28.2487 31.9644C29.0754 31.6415 29.7776 31.2118 30.4799 30.5126C31.1791 29.8133 31.6117 29.1111 31.9317 28.2815C32.2428 27.4815 32.4562 26.5659 32.5184 25.2237C32.5806 23.8815 32.5954 23.4518 32.5954 20.0326C32.5954 16.6133 32.5806 16.1837 32.5184 14.8415C32.4562 13.5022 32.2458 12.5866 31.9317 11.7837C31.6087 10.957 31.1791 10.2548 30.4799 9.55257C29.7806 8.85331 29.0784 8.42072 28.2487 8.10072C27.4487 7.7896 26.5332 7.57627 25.191 7.51405C23.8487 7.45183 23.4191 7.43701 19.9999 7.43701Z" fill="#004751"/>
<path d="M19.9999 13.5645C16.4295 13.5645 13.5347 16.4593 13.5347 20.0296C13.5347 23.6 16.4295 26.4948 19.9999 26.4948C23.5702 26.4948 26.465 23.6 26.465 20.0296C26.465 16.4593 23.5702 13.5645 19.9999 13.5645ZM19.9999 24.2282C17.6828 24.2282 15.8013 22.3496 15.8013 20.0296C15.8013 17.7096 17.6799 15.8311 19.9999 15.8311C22.3199 15.8311 24.1984 17.7096 24.1984 20.0296C24.1984 22.3496 22.3199 24.2282 19.9999 24.2282Z" fill="#004751"/>
<path d="M26.723 14.8181C27.5576 14.8181 28.2341 14.1416 28.2341 13.307C28.2341 12.4724 27.5576 11.7959 26.723 11.7959C25.8885 11.7959 25.2119 12.4724 25.2119 13.307C25.2119 14.1416 25.8885 14.8181 26.723 14.8181Z" fill="#004751"/>
</svg>
