<?xml version="1.0" encoding="UTF-8"?>
<svg id="Layer_1" xmlns="http://www.w3.org/2000/svg" version="1.1" viewBox="0 0 40 41">
  <!-- Generator: Adobe Illustrator 29.0.1, SVG Export Plug-In . SVG Version: 2.1.0 Build 192)  -->
  <defs>
    <style>
      .st0 {
        fill: #004751;
      }

      .st1 {
        fill: #fff;
      }
    </style>
  </defs>
  <path class="st1" d="M20,.5C9,.5,0,9.5,0,20.5s9,20,20,20,20-9,20-20S31,.5,20,.5Z"/>
  <path class="st0" d="M31.9,26.5c-.3,1.1-1.1,1.9-2.2,2.2-1.9.5-9.7.5-9.7.5,0,0-7.8,0-9.7-.5-1.1-.3-1.9-1.1-2.2-2.2-.5-2-.5-6-.5-6,0,0,0-4.1.5-6,.3-1.1,1.1-1.9,2.2-2.2,1.9-.5,9.7-.5,9.7-.5,0,0,7.8,0,9.7.5,1.1.3,1.9,1.1,2.2,2.2.5,2,.5,6,.5,6,0,0,0,4.1-.5,6Z"/>
  <polygon class="st1" points="17.5 24.2 24 20.5 17.5 16.8 17.5 24.2"/>
</svg>