<svg width="40" height="41" viewBox="0 0 40 41" fill="none" xmlns="http://www.w3.org/2000/svg">
<path d="M20 40.0298C31.0457 40.0298 40 31.0755 40 20.0298C40 8.98409 31.0457 0.0297852 20 0.0297852C8.9543 0.0297852 0 8.98409 0 20.0298C0 31.0755 8.9543 40.0298 20 40.0298Z" fill="white"/>
<path d="M21.547 17.301C21.8759 16.9306 22.1455 16.5573 22.4833 16.2402C23.5203 15.2624 24.747 14.7706 26.1811 14.7824C26.9692 14.7884 27.7455 14.8447 28.504 15.0639C30.2403 15.5647 31.2477 16.7617 31.7307 18.4565C32.0922 19.7276 32.1574 21.0343 32.1603 22.3439C32.1662 25.1054 32.1514 27.8698 32.1603 30.6313C32.1603 30.8891 32.0892 30.9573 31.8344 30.9573C30.4122 30.9454 28.987 30.9454 27.5648 30.9573C27.3129 30.9573 27.2596 30.8832 27.2596 30.6461C27.2685 28.018 27.2685 25.3898 27.2596 22.7587C27.2596 22.101 27.2151 21.4402 27.0314 20.8002C26.6907 19.621 25.8462 19.0195 24.6107 19.0847C22.9218 19.1735 22.0448 20.0091 21.8314 21.7247C21.7811 22.1335 21.7544 22.5454 21.7574 22.9573C21.7574 25.5143 21.7574 28.0713 21.7633 30.6284C21.7633 30.8832 21.7011 30.9573 21.4403 30.9573C20.0062 30.9454 18.5722 30.9454 17.1381 30.9573C16.907 30.9573 16.8418 30.898 16.8418 30.6639C16.8477 25.6032 16.8477 20.5395 16.8418 15.4787C16.8418 15.2269 16.9248 15.1706 17.1618 15.1706C18.5218 15.1795 19.8848 15.1824 21.2448 15.1706C21.4966 15.1706 21.5588 15.2506 21.5559 15.4876C21.5411 16.0921 21.5499 16.6965 21.5499 17.3039L21.547 17.301Z" fill="#004751"/>
<path d="M13.7481 23.0874C13.7481 25.5912 13.7451 28.0949 13.754 30.5986C13.754 30.8771 13.6859 30.96 13.3984 30.9571C11.9762 30.9423 10.554 30.9452 9.12882 30.9571C8.90067 30.9571 8.83252 30.9008 8.83252 30.6667C8.83845 25.5971 8.83845 20.5274 8.83252 15.4549C8.83252 15.2445 8.88289 15.1704 9.10511 15.1704C10.5481 15.1793 11.991 15.1823 13.434 15.1704C13.7125 15.1704 13.7481 15.2741 13.7481 15.5141C13.7421 18.0386 13.7451 20.563 13.7451 23.0874H13.7481Z" fill="#004751"/>
<path d="M14.142 10.1455C14.142 11.7189 12.8679 12.9989 11.2976 12.9989C9.74793 12.9989 8.462 11.7189 8.45608 10.1693C8.45015 8.60481 9.73608 7.31592 11.3035 7.31592C12.859 7.31592 14.139 8.59296 14.142 10.1426V10.1455Z" fill="#004751"/>
</svg>
