<svg width="40" height="41" viewBox="0 0 40 41" fill="none" xmlns="http://www.w3.org/2000/svg">
<path d="M40 20.0298C40 8.98385 31.0459 0.0297852 20 0.0297852C8.95407 0.0297852 0 8.98385 0 20.0298C0 30.012 7.31259 38.2875 16.8741 39.7868V25.8105H11.7955V20.0298H16.8741V15.6238C16.8741 10.6105 19.8607 7.84311 24.4296 7.84311C26.6192 7.84311 28.9066 8.23422 28.9066 8.23422V13.1557H26.3852C23.9022 13.1557 23.1259 14.6964 23.1259 16.2787V20.0298H28.6726L27.7866 25.8105H23.1259V39.7868C32.6874 38.2875 40 30.012 40 20.0298Z" fill="white"/>
<path d="M27.7865 25.8107L28.6724 20.0299H23.1258V16.2788C23.1258 14.6966 23.8991 13.1558 26.385 13.1558H28.9065V8.23437C28.9065 8.23437 26.6191 7.84326 24.4295 7.84326C19.8606 7.84326 16.8739 10.6107 16.8739 15.624V20.0299H11.7954V25.8107H16.8739V39.7869C17.8932 39.9469 18.9361 40.0299 19.9998 40.0299C21.0636 40.0299 22.1065 39.9469 23.1258 39.7869V25.8107H27.7865Z" fill="#004751"/>
</svg>
