<?xml version="1.0" encoding="UTF-8"?>
<svg id="Layer_1" xmlns="http://www.w3.org/2000/svg" viewBox="0 0 1190.55 397.92">
  <defs>
    <style>
      .cls-1 {
        fill: #fff;
      }

      .cls-2 {
        fill: #00bab3;
      }
    </style>
  </defs>
  <g>
    <path class="cls-2" d="M1183.52,85.58l-36.25-20.93c-9.38-5.42-21.11,1.35-21.11,12.19v41.86c0,10.83,11.73,17.6,21.11,12.19l36.25-20.93c9.38-5.42,9.38-18.96,0-24.37Z"/>
    <path class="cls-2" d="M57.54,22.84L21.28,1.91C11.9-3.51.18,3.26.18,14.09v41.86c0,10.83,11.73,17.6,21.11,12.19l36.25-20.93c9.38-5.42,9.38-18.96,0-24.37Z"/>
  </g>
  <g>
    <path class="cls-1" d="M249.91,163.93v124.95h65.38v-146.51c0-47.58-38.13-86.65-85.71-87.25-28.94-.37-52.78,9.05-71.03,27.76v-8.11c0-7.89-6.39-14.28-14.28-14.28h-51.1v228.4h65.38v-122.42c0-26.41,21.26-48.29,47.67-48.2,26.31.09,43.69,17.98,43.69,45.68Z"/>
    <path class="cls-1" d="M567.87,60.48h-53c-12,0-22.73,7.51-26.83,18.78l-46,126.31-45.59-126.24c-4.09-11.32-14.83-18.86-26.86-18.86h-54.74l93.15,228.4h67.18l92.7-228.4Z"/>
    <path class="cls-1" d="M882.82,123.62c0-10.3,11.2-17.02,25.98-17.02,16.57,0,28.66,8.06,28.66,20.15h64.93c0-41.2-38.51-71.66-93.15-71.66-50.16,0-90.91,25.53-90.91,73.89,0,82.4,122.71,61.8,122.71,95.39,0,10.3-12.09,17.91-28.66,17.91-18.81,0-32.24-9.41-32.24-22.84h-65.39c0,42.54,39.41,74.79,97.63,74.79s93.6-30.9,93.6-76.58c0-81.51-123.15-61.8-123.15-94.05Z"/>
    <path class="cls-1" d="M1137.02,229.31c-17.02,0-26.87-9.41-26.87-25.53V2.68h-61.8v64.44h-27.97v59.56h27.97v87.84c0,48.81,24.63,74.34,78.82,74.34h32.69v-59.56h-22.84Z"/>
    <path class="cls-1" d="M797.02,219.42h-59.73c-6.28,0-12.49,1.93-17.38,5.87-9.75,7.88-23.32,12.98-39.19,12.98-27.32,0-48.37-16.57-55.53-42.54h174.66c1.34-5.82,1.79-13.44,1.79-19.71,0-69.86-53.29-120.92-123.15-120.92s-123.16,51.5-123.16,119.57,52.84,119.57,123.6,119.57c55.34,0,100.32-30.16,118.09-74.83ZM678.48,111.08c25.97,0,46.57,16.12,53.29,41.2h-106.14c7.17-25.08,26.87-41.2,52.85-41.2Z"/>
    <path class="cls-1" d="M65.5,60.5L10.01,92.54C3.82,96.11,0,102.72,0,109.88v177.63h65.5V60.5Z"/>
    <path class="cls-1" d="M38.24,339.14c9.16,0,16.65,5.31,19.35,13.11h17.17c-3.22-16.75-18-28.61-36.52-28.61-21.64,0-37.97,16.02-37.97,37.14s16.33,37.14,37.97,37.14c18.52,0,33.29-11.86,36.52-28.61h-17.17c-2.71,7.8-10.2,13.11-19.35,13.11-12.17,0-21.43-9.26-21.43-21.64s9.26-21.64,21.43-21.64Z"/>
    <polygon class="cls-1" points="126.78 352.98 97.96 352.98 97.96 324.89 81.84 324.89 81.84 396.67 97.96 396.67 97.96 368.17 126.78 368.17 126.78 396.67 142.91 396.67 142.91 324.89 126.78 324.89 126.78 352.98"/>
    <polygon class="cls-1" points="169.13 368.17 197.22 368.17 197.22 352.98 169.13 352.98 169.13 340.08 200.65 340.08 200.65 324.89 153 324.89 153 396.67 201.17 396.67 201.17 381.48 169.13 381.48 169.13 368.17"/>
    <polygon class="cls-1" points="226.14 324.89 210.02 324.89 210.02 396.67 255.07 396.67 255.07 381.48 226.14 381.48 226.14 324.89"/>
    <polygon class="cls-1" points="301.78 361.92 281.6 324.89 261.62 324.89 261.62 396.67 277.75 396.67 277.75 348.81 297.1 384.6 306.25 384.6 325.71 348.81 325.71 396.67 341.84 396.67 341.84 324.89 322.07 324.89 301.78 361.92"/>
    <path class="cls-1" d="M366.91,344.55c0-4.06,4.16-6.55,9.16-6.55,5.51,0,9.78,3.23,9.78,7.49h16.54c0-12.48-11.34-21.85-26.22-21.85s-25.8,8.74-25.8,22.26c0,24.34,36.52,19.45,36.52,30.69,0,4.06-4.58,6.97-10.09,6.97-6.14,0-11.03-3.75-11.03-8.43h-16.54c0,12.8,11.65,22.78,27.36,22.78s26.84-9.16,26.84-23.2c0-24.97-36.52-18.83-36.52-30.17Z"/>
    <polygon class="cls-1" points="411.96 396.67 428.09 396.67 428.09 368.89 453.99 368.89 453.99 353.7 428.09 353.7 428.09 340.08 458.05 340.08 458.05 324.89 411.96 324.89 411.96 396.67"/>
    <path class="cls-1" d="M498.52,323.64c-21.64,0-37.97,16.02-37.97,37.14s16.33,37.14,37.97,37.14,37.97-16.02,37.97-37.14-16.34-37.14-37.97-37.14ZM498.52,382.42c-12.17,0-21.43-9.26-21.43-21.64s9.26-21.64,21.43-21.64,21.43,9.26,21.43,21.64-9.26,21.64-21.43,21.64Z"/>
    <path class="cls-1" d="M601.42,348.92c0-13.73-10.72-24.03-24.97-24.03h-32.36v71.79h16.13v-24.55h8.32l15.09,24.55h19.98l-17.06-26.22c8.95-3.43,14.88-11.44,14.88-21.54ZM576.14,358.07h-15.92v-18h15.92c4.99,0,8.74,3.85,8.74,9.05s-3.75,8.95-8.74,8.95Z"/>
    <path class="cls-1" d="M639.4,324.89h-28.3v71.79h28.3c20.91,0,36.62-15.4,36.62-35.89s-15.71-35.89-36.62-35.89ZM638.98,381.48h-11.76v-41.41h11.76c11.76,0,20.5,8.95,20.5,20.7s-8.74,20.7-20.5,20.7Z"/>
    <path class="cls-1" d="M750.93,358.49c4.58-2.81,7.8-8.64,7.8-15.19,0-10.72-8.32-18.41-19.14-18.41h-35.58v71.79h38.08c11.65,0,20.29-8.11,20.29-19.45,0-8.53-4.68-16.13-11.44-18.73ZM719.61,339.45h15.92c3.85,0,6.66,2.81,6.66,6.76s-2.91,6.76-6.66,6.76h-15.92v-13.53ZM738.13,382.11h-18.52v-15.5h18.52c4.37,0,7.7,3.43,7.7,7.8s-3.33,7.7-7.7,7.7Z"/>
    <path class="cls-1" d="M811.17,368.58c0,7.91-5.93,13.84-13.84,13.84s-13.84-5.93-13.84-13.84v-43.7h-16.13v43.9c0,16.65,12.9,29.13,29.96,29.13s29.96-12.49,29.96-29.13v-43.9h-16.13v43.7Z"/>
    <path class="cls-1" d="M851.12,344.55c0-4.06,4.16-6.55,9.16-6.55,5.51,0,9.78,3.23,9.78,7.49h16.54c0-12.48-11.34-21.85-26.22-21.85s-25.8,8.74-25.8,22.26c0,24.34,36.52,19.45,36.52,30.69,0,4.06-4.58,6.97-10.09,6.97-6.14,0-11.03-3.75-11.03-8.43h-16.54c0,12.8,11.65,22.78,27.36,22.78s26.84-9.16,26.84-23.2c0-24.97-36.52-18.83-36.52-30.17Z"/>
    <rect class="cls-1" x="895.13" y="324.89" width="16.13" height="71.79"/>
    <polygon class="cls-1" points="968.47 368.79 938.62 324.89 922.39 324.89 922.39 396.67 938.51 396.67 938.51 352.77 968.27 396.67 984.6 396.67 984.6 324.89 968.47 324.89 968.47 368.79"/>
    <polygon class="cls-1" points="1010.72 368.17 1038.81 368.17 1038.81 352.98 1010.72 352.98 1010.72 340.08 1042.24 340.08 1042.24 324.89 994.59 324.89 994.59 396.67 1042.76 396.67 1042.76 381.48 1010.72 381.48 1010.72 368.17"/>
    <path class="cls-1" d="M1064.82,344.55c0-4.06,4.16-6.55,9.16-6.55,5.51,0,9.78,3.23,9.78,7.49h16.54c0-12.48-11.34-21.85-26.22-21.85s-25.8,8.74-25.8,22.26c0,24.34,36.52,19.45,36.52,30.69,0,4.06-4.58,6.97-10.09,6.97-6.14,0-11.03-3.75-11.03-8.43h-16.54c0,12.8,11.65,22.78,27.36,22.78s26.84-9.16,26.84-23.2c0-24.97-36.52-18.83-36.52-30.17Z"/>
    <path class="cls-1" d="M1122.87,344.55c0-4.06,4.16-6.55,9.16-6.55,5.51,0,9.78,3.23,9.78,7.49h16.54c0-12.48-11.34-21.85-26.22-21.85s-25.8,8.74-25.8,22.26c0,24.34,36.52,19.45,36.52,30.69,0,4.06-4.58,6.97-10.09,6.97-6.14,0-11.03-3.75-11.03-8.43h-16.54c0,12.8,11.65,22.78,27.36,22.78s26.84-9.16,26.84-23.2c0-24.97-36.52-18.83-36.52-30.17Z"/>
  </g>
</svg>